<svg version="1.1" id="Layer_1" xmlns="http://www.w3.org/2000/svg" xmlns:xlink="http://www.w3.org/1999/xlink" x="0px" y="0px"
	 width="100%" viewBox="0 0 310 322" enable-background="new 0 0 310 322" xml:space="preserve">
<path fill="#FFFFFF" opacity="1.000000" stroke="none" 
	d="
M170.000000,323.000000 
	C113.333359,323.000000 57.166721,323.000000 1.000060,323.000000 
	C1.000040,215.666748 1.000040,108.333488 1.000020,1.000175 
	C104.333199,1.000117 207.666397,1.000117 310.999695,1.000058 
	C310.999817,108.333153 310.999817,215.666306 310.999908,322.999725 
	C264.166656,323.000000 217.333328,323.000000 170.000000,323.000000 
M177.500214,150.575699 
	C127.290070,150.575699 77.079933,150.575699 26.867577,150.575699 
	C26.867577,159.844238 26.867577,168.419601 26.867577,177.072266 
	C92.470512,177.072266 157.792389,177.072266 223.124115,177.072266 
	C223.124115,168.155060 223.124115,159.581482 223.124115,150.575668 
	C208.059570,150.575668 193.279907,150.575668 177.500214,150.575699 
M63.500153,207.661545 
	C51.256317,207.661545 39.012482,207.661545 26.947227,207.661545 
	C26.947227,217.302094 26.947227,226.199799 26.947227,235.058350 
	C70.515533,235.058350 113.723106,235.058350 157.031189,235.058350 
	C157.031189,225.873489 157.031189,216.970459 157.031189,207.661530 
	C126.022148,207.661530 95.261154,207.661530 63.500153,207.661545 
M148.429718,37.719666 
	C107.889900,37.719666 67.350082,37.719666 26.916809,37.719666 
	C26.916809,47.290871 26.916809,56.188919 26.916809,65.150177 
	C70.440758,65.150177 113.634430,65.150177 157.280334,65.150177 
	C157.280334,58.477863 157.280472,52.029648 157.280304,45.581429 
	C157.280121,37.721233 157.280014,37.721233 148.429718,37.719666 
M157.180939,120.519814 
	C157.180939,111.928299 157.180939,103.336784 157.180939,94.942238 
	C113.328926,94.942238 70.093376,94.942238 26.879827,94.942238 
	C26.879827,103.880760 26.879827,112.460930 26.879827,121.071655 
	C27.625278,121.220314 28.093441,121.395660 28.561487,121.395355 
	C71.216354,121.367050 113.871216,121.325287 157.180939,120.519814 
M85.500191,264.604706 
	C65.926331,264.604706 46.352467,264.604706 26.922192,264.604706 
	C26.922192,273.951263 26.922192,282.530701 26.922192,291.116821 
	C70.479538,291.116821 113.701126,291.116821 157.050354,291.116821 
	C157.050354,282.235138 157.050354,273.651154 157.050354,264.604706 
	C133.382278,264.604706 109.941238,264.604706 85.500191,264.604706 
M179.500183,235.719650 
	C172.258148,235.719650 165.016113,235.719650 158.020355,235.719650 
	C158.020355,245.377243 158.020355,254.280914 158.020355,263.071533 
	C179.598358,263.071533 200.816254,263.071533 222.106750,263.071533 
	C222.106750,253.867722 222.106750,244.979431 222.106750,235.719650 
	C208.054626,235.719650 194.277390,235.719650 179.500183,235.719650 
M222.383209,69.470482 
	C222.803375,65.724594 220.039291,66.629791 218.075012,66.626160 
	C199.087387,66.591064 180.099655,66.598633 161.112000,66.623367 
	C160.021652,66.624786 158.931641,66.881569 157.968231,67.003479 
	C157.968231,75.930473 157.968231,84.511009 157.968231,93.127708 
	C179.504379,93.127708 200.732590,93.127708 222.384567,93.127708 
	C222.384567,85.393333 222.384567,77.937225 222.383209,69.470482 
M269.499695,149.421997 
	C275.740356,149.421997 281.981018,149.421997 288.113647,149.421997 
	C288.113647,140.083099 288.113647,131.513168 288.113647,122.959770 
	C266.800232,122.959770 245.797592,122.959770 224.887863,122.959770 
	C224.887863,131.915985 224.887863,140.487259 224.887863,149.422043 
	C239.623520,149.422043 254.061569,149.422043 269.499695,149.421997 
M288.421997,185.490173 
	C288.421997,183.250366 288.421997,181.010574 288.421997,178.876007 
	C266.733826,178.876007 245.860489,178.876007 224.976746,178.876007 
	C224.976746,187.852631 224.976746,196.534698 224.976746,205.109985 
	C246.242432,205.109985 267.117310,205.109985 288.422028,205.109985 
	C288.422028,198.720947 288.422028,192.609070 288.421997,185.490173 
z"/>
<path fill="#0B0B0B" opacity="1.000000" stroke="none" 
	d="
M178.000229,150.575684 
	C193.279907,150.575668 208.059570,150.575668 223.124115,150.575668 
	C223.124115,159.581482 223.124115,168.155060 223.124115,177.072266 
	C157.792389,177.072266 92.470512,177.072266 26.867577,177.072266 
	C26.867577,168.419601 26.867577,159.844238 26.867577,150.575699 
	C77.079933,150.575699 127.290070,150.575699 178.000229,150.575684 
z"/>
<path fill="#0B0B0B" opacity="1.000000" stroke="none" 
	d="
M64.000153,207.661530 
	C95.261154,207.661530 126.022148,207.661530 157.031189,207.661530 
	C157.031189,216.970459 157.031189,225.873489 157.031189,235.058350 
	C113.723106,235.058350 70.515533,235.058350 26.947227,235.058350 
	C26.947227,226.199799 26.947227,217.302094 26.947227,207.661545 
	C39.012482,207.661545 51.256317,207.661545 64.000153,207.661530 
z"/>
<path fill="#0B0B0B" opacity="1.000000" stroke="none" 
	d="
M148.920120,37.719662 
	C157.280014,37.721233 157.280121,37.721233 157.280304,45.581429 
	C157.280472,52.029648 157.280334,58.477863 157.280334,65.150177 
	C113.634430,65.150177 70.440758,65.150177 26.916809,65.150177 
	C26.916809,56.188919 26.916809,47.290871 26.916809,37.719666 
	C67.350082,37.719666 107.889900,37.719666 148.920120,37.719662 
z"/>
<path fill="#0B0B0B" opacity="1.000000" stroke="none" 
	d="
M156.853516,120.902115 
	C113.871216,121.325287 71.216354,121.367050 28.561487,121.395355 
	C28.093441,121.395660 27.625278,121.220314 26.879827,121.071655 
	C26.879827,112.460930 26.879827,103.880760 26.879827,94.942238 
	C70.093376,94.942238 113.328926,94.942238 157.180939,94.942238 
	C157.180939,103.336784 157.180939,111.928299 156.853516,120.902115 
z"/>
<path fill="#0B0B0B" opacity="1.000000" stroke="none" 
	d="
M86.000198,264.604706 
	C109.941238,264.604706 133.382278,264.604706 157.050354,264.604706 
	C157.050354,273.651154 157.050354,282.235138 157.050354,291.116821 
	C113.701126,291.116821 70.479538,291.116821 26.922192,291.116821 
	C26.922192,282.530701 26.922192,273.951263 26.922192,264.604706 
	C46.352467,264.604706 65.926331,264.604706 86.000198,264.604706 
z"/>
<path fill="#0B0B0B" opacity="1.000000" stroke="none" 
	d="
M180.000168,235.719650 
	C194.277390,235.719650 208.054626,235.719650 222.106750,235.719650 
	C222.106750,244.979431 222.106750,253.867722 222.106750,263.071533 
	C200.816254,263.071533 179.598358,263.071533 158.020355,263.071533 
	C158.020355,254.280914 158.020355,245.377243 158.020355,235.719650 
	C165.016113,235.719650 172.258148,235.719650 180.000168,235.719650 
z"/>
<path fill="#0B0B0B" opacity="1.000000" stroke="none" 
	d="
M222.383881,69.975800 
	C222.384567,77.937225 222.384567,85.393333 222.384567,93.127708 
	C200.732590,93.127708 179.504379,93.127708 157.968231,93.127708 
	C157.968231,84.511009 157.968231,75.930473 157.968231,67.003479 
	C158.931641,66.881569 160.021652,66.624786 161.112000,66.623367 
	C180.099655,66.598633 199.087387,66.591064 218.075012,66.626160 
	C220.039291,66.629791 222.803375,65.724594 222.383881,69.975800 
z"/>
<path fill="#0B0B0B" opacity="1.000000" stroke="none" 
	d="
M268.999634,149.422028 
	C254.061569,149.422043 239.623520,149.422043 224.887863,149.422043 
	C224.887863,140.487259 224.887863,131.915985 224.887863,122.959770 
	C245.797592,122.959770 266.800232,122.959770 288.113647,122.959770 
	C288.113647,131.513168 288.113647,140.083099 288.113647,149.421997 
	C281.981018,149.421997 275.740356,149.421997 268.999634,149.422028 
z"/>
<path fill="#0B0B0B" opacity="1.000000" stroke="none" 
	d="
M288.421997,185.993683 
	C288.422028,192.609070 288.422028,198.720947 288.422028,205.109985 
	C267.117310,205.109985 246.242432,205.109985 224.976746,205.109985 
	C224.976746,196.534698 224.976746,187.852631 224.976746,178.876007 
	C245.860489,178.876007 266.733826,178.876007 288.421997,178.876007 
	C288.421997,181.010574 288.421997,183.250366 288.421997,185.993683 
z"/>
</svg>