<svg version="1.1" id="Layer_1" xmlns="http://www.w3.org/2000/svg" xmlns:xlink="http://www.w3.org/1999/xlink" x="0px" y="0px"
	 width="100%" viewBox="0 0 1772 322" enable-background="new 0 0 1772 322" xml:space="preserve">
<path fill="#FFFFFF" opacity="1.000000" stroke="none" 
	d="
M1290.000000,323.000000 
	C860.051147,323.000000 430.602356,323.000000 1.076762,323.000000 
	C1.076762,215.730682 1.076762,108.461281 1.076762,1.095945 
	C591.666687,1.095945 1182.333374,1.095945 1772.970703,1.095945 
	C1772.970703,108.397949 1772.970703,215.698975 1772.970703,323.000000 
	C1612.127563,323.000000 1451.313843,323.000000 1290.000000,323.000000 
M156.019699,263.013184 
	C112.591705,263.013184 69.163712,263.013184 25.459249,263.013184 
	C25.459249,272.991791 25.459249,282.387329 25.459249,291.920715 
	C69.719826,291.920715 113.722084,291.920715 158.279266,291.920715 
	C158.279266,282.394592 158.279266,273.260315 159.179825,264.186432 
	C180.431549,264.186432 201.683258,264.186432 222.810181,264.186432 
	C222.810181,254.056870 222.810181,244.659409 222.810181,234.764465 
	C201.042206,234.764465 179.643799,234.764465 157.723709,234.764465 
	C157.723709,225.194260 157.723709,216.127533 157.723709,207.296722 
	C113.288666,207.296722 69.385757,207.296722 25.576080,207.296722 
	C25.576080,217.077194 25.576080,226.468536 25.576080,236.365906 
	C69.535759,236.365906 113.104752,236.365906 156.936081,236.365906 
	C156.936081,245.538025 156.936081,254.192368 156.019699,263.013184 
M159.270905,94.296501 
	C180.501236,94.296501 201.731567,94.296501 222.784134,94.296501 
	C222.784134,84.120415 222.784134,74.729973 222.784134,64.839355 
	C201.001617,64.839355 179.615677,64.839355 157.704041,64.839355 
	C157.704041,55.267426 157.704041,46.204231 157.704041,37.376701 
	C113.278549,37.376701 69.389801,37.376701 25.569149,37.376701 
	C25.569149,47.146309 25.569149,56.533455 25.569149,66.425461 
	C69.511940,66.425461 113.070198,66.425461 156.950333,66.425461 
	C156.950333,75.587395 156.950333,84.234589 156.037994,93.083199 
	C112.511902,93.083199 68.985809,93.083199 25.550110,93.083199 
	C25.550110,103.365082 25.550110,112.745956 25.550110,122.244621 
	C69.805504,122.244621 113.688797,122.244621 158.390366,122.244621 
	C158.390366,112.712868 158.390366,103.441292 159.270905,94.296501 
M28.932592,178.787109 
	C93.606766,178.787109 158.280945,178.787109 223.389130,178.787109 
	C223.389130,188.044891 223.389130,196.516846 223.237473,205.601624 
	C223.827393,205.976486 224.417297,206.351334 225.931061,206.887863 
	C246.617996,206.835876 267.304932,206.783875 288.788055,206.748810 
	C289.084808,197.508392 289.411835,188.268448 289.562561,179.025650 
	C289.568329,178.672241 287.873016,178.291077 286.054901,177.724533 
	C265.568359,177.724533 245.081848,177.724533 224.069366,177.724533 
	C224.069366,168.574005 224.069366,160.298813 224.570801,151.311584 
	C226.357620,151.111877 228.144058,150.742905 229.931335,150.738632 
	C247.910889,150.695755 265.890594,150.712677 283.870239,150.712769 
	C285.645782,150.712769 287.421356,150.712769 289.277588,150.712769 
	C289.277588,140.578033 289.277588,131.061493 289.277588,121.608353 
	C267.100189,121.608353 245.360031,121.608353 223.080612,121.608353 
	C223.080612,130.986115 223.080612,140.054382 223.080612,149.469757 
	C220.401352,149.469757 218.262527,149.469757 216.123703,149.469757 
	C154.526733,149.469696 92.929764,149.469315 31.332788,149.471619 
	C29.834990,149.471680 28.267454,149.246948 26.869942,149.629440 
	C26.209255,149.810257 25.874128,151.180603 25.213467,152.932236 
	C25.272306,160.617508 25.331144,168.302765 25.203665,176.684799 
	C26.139830,177.326538 27.075994,177.968292 28.932592,178.787109 
M1017.395447,250.473450 
	C1017.395447,226.743729 1017.395447,203.013992 1017.395447,178.927902 
	C1030.030762,178.927902 1041.835571,179.083435 1053.631836,178.838043 
	C1057.425049,178.759140 1059.513428,179.822708 1061.401367,183.294373 
	C1075.161865,208.597443 1089.247314,233.723755 1103.051270,259.003479 
	C1104.865234,262.325439 1106.759521,263.888428 1110.734497,263.710449 
	C1118.548218,263.360565 1126.388794,263.628754 1134.218018,263.585571 
	C1135.428345,263.578888 1136.637085,263.277130 1138.348389,263.043274 
	C1129.912720,248.316742 1121.802002,234.175461 1113.708984,220.024124 
	C1105.580200,205.810120 1097.468994,191.586075 1089.628784,177.854660 
	C1097.715088,173.941742 1105.554932,170.972534 1112.538452,166.627090 
	C1143.958008,147.076370 1146.345215,98.498383 1114.924561,77.300766 
	C1101.677124,68.363457 1086.895264,65.302887 1071.315063,65.218895 
	C1045.661865,65.080589 1020.007507,65.172882 994.353577,65.183907 
	C992.730286,65.184608 991.106995,65.322655 989.173218,65.410988 
	C989.173218,131.454208 989.173218,197.165237 989.173218,263.204346 
	C998.538147,263.204346 1007.747375,263.204346 1017.395264,263.204346 
	C1017.395264,259.060028 1017.395264,255.259705 1017.395447,250.473450 
M555.875183,238.374634 
	C559.906311,233.952484 564.380249,229.854065 567.891602,225.051865 
	C582.695618,204.805710 586.260071,181.505447 585.180176,157.208191 
	C584.393127,139.500137 580.546204,122.486969 570.402954,107.565308 
	C552.507935,81.239914 526.444153,68.637054 495.671204,66.347153 
	C472.796265,64.644966 449.730469,65.504234 426.749329,65.252876 
	C425.975372,65.244408 425.197815,65.564209 424.393646,65.737083 
	C424.393646,131.668091 424.393646,197.355133 424.393646,263.137665 
	C425.422211,263.289917 426.067017,263.469452 426.711548,263.468567 
	C446.870789,263.441345 467.036194,263.696533 487.187622,263.278687 
	C512.549316,262.752777 535.763550,255.733734 555.875183,238.374634 
M1341.357910,122.500107 
	C1341.357910,103.567848 1341.357910,84.635590 1341.357910,65.541107 
	C1332.110474,65.541107 1323.567505,65.541107 1314.929810,65.541107 
	C1314.929810,131.601578 1314.929810,197.321701 1314.929810,263.024689 
	C1323.840210,263.024689 1332.398682,263.024689 1341.493652,263.024689 
	C1341.493652,255.749878 1341.493652,248.842819 1341.493652,241.088440 
	C1345.166748,245.313019 1347.890503,249.077942 1351.228027,252.183167 
	C1375.256470,274.538544 1415.123047,272.330811 1438.111206,247.506088 
	C1461.085938,222.695740 1464.263550,177.282166 1444.996704,148.282608 
	C1417.727173,107.237823 1362.692871,113.850677 1343.424805,145.043808 
	C1343.148682,145.490997 1342.557861,145.743805 1341.358154,146.671967 
	C1341.358154,138.383026 1341.358154,130.941559 1341.357910,122.500107 
M1146.854004,181.436905 
	C1145.080933,197.580322 1145.718750,213.500031 1153.236206,228.266602 
	C1170.901245,262.966125 1218.459106,277.919983 1254.429199,260.333801 
	C1285.287964,245.246582 1300.869629,213.015259 1294.160400,178.147995 
	C1287.899780,145.612274 1260.794678,122.207771 1226.952148,119.823997 
	C1188.375488,117.106743 1151.338867,142.120148 1146.854004,181.436905 
M1481.879272,224.604019 
	C1491.467407,246.077408 1508.521484,258.765808 1530.617310,264.826599 
	C1587.043335,280.304016 1636.608887,233.191528 1624.079224,176.240707 
	C1617.153442,144.761017 1590.578613,121.959824 1557.809204,119.945702 
	C1529.410156,118.200188 1505.212036,127.477310 1488.686646,151.125015 
	C1472.992065,173.583740 1473.438721,198.598190 1481.879272,224.604019 
M690.332764,244.838974 
	C691.871521,242.291214 693.410278,239.743454 694.949036,237.195694 
	C695.323914,237.330414 695.698730,237.465134 696.073608,237.599854 
	C696.073608,246.154129 696.073608,254.708420 696.073608,263.169189 
	C704.972290,263.169189 713.335510,263.169189 721.998901,263.169189 
	C721.998901,250.855881 722.018860,239.036148 721.994629,227.216507 
	C721.949829,205.385147 722.452271,183.532516 721.640991,161.729156 
	C720.971436,143.738098 711.560486,131.130524 694.414917,124.711754 
	C680.976562,119.680878 667.041687,119.063660 653.010437,120.517387 
	C641.387817,121.721573 630.590088,125.481857 621.550964,133.288589 
	C612.192505,141.371170 607.157898,151.347351 607.988037,164.137650 
	C616.285339,164.137650 624.354553,164.137650 632.355408,164.137650 
	C635.517395,146.219223 642.804993,139.921906 661.021912,139.193420 
	C664.011536,139.073837 667.035583,139.092697 670.008545,139.394272 
	C687.494995,141.168076 695.413818,150.250854 695.297058,167.804764 
	C695.274475,171.196640 694.136475,172.476715 690.891663,172.914719 
	C682.969788,173.984100 675.064758,175.215530 667.192017,176.603622 
	C653.129639,179.083038 638.816406,180.259827 625.564331,186.501038 
	C595.552002,200.635681 590.658447,240.382751 616.955872,258.947449 
	C635.918396,272.334045 673.499756,272.553955 690.332764,244.838974 
M833.684692,231.751633 
	C835.527954,244.620728 841.980103,254.539551 853.270264,260.919495 
	C873.881592,272.566681 910.755615,271.864166 926.247742,240.147125 
	C926.736633,239.146271 927.530334,238.294312 928.181946,237.372925 
	C928.507935,237.508591 928.833984,237.644257 929.159973,237.779907 
	C929.159973,246.210693 929.159973,254.641464 929.159973,263.269470 
	C937.972839,263.269470 946.355225,263.269470 954.689209,263.269470 
	C954.901428,262.407318 955.122253,261.928467 955.122437,261.449554 
	C955.134583,228.806091 955.416382,196.158951 954.997986,163.520798 
	C954.802551,148.275955 948.820862,135.019577 934.588501,128.133499 
	C910.808533,116.627960 886.292969,116.141106 862.420959,128.025696 
	C847.607788,135.400375 839.617981,150.211349 841.398743,164.498444 
	C847.802246,164.498444 854.279846,164.309433 860.739075,164.572021 
	C864.391113,164.720490 866.103516,163.872650 866.335876,159.821701 
	C866.904480,149.906189 872.752380,143.666977 882.007507,141.517380 
	C888.869446,139.923599 896.194275,139.054474 903.190857,139.558319 
	C920.667969,140.816818 928.633545,150.320358 928.522949,167.800064 
	C928.501404,171.206802 927.327881,172.467346 924.107605,172.906387 
	C916.192078,173.985580 908.290344,175.203339 900.423584,176.594299 
	C886.372803,179.078690 872.034729,180.162994 858.820801,186.469910 
	C840.610352,195.161636 831.288635,211.163223 833.684692,231.751633 
M1637.627197,144.988205 
	C1642.737671,144.988205 1647.848145,144.988205 1653.294434,144.988205 
	C1653.294434,147.441406 1653.294434,149.251602 1653.294434,151.061798 
	C1653.294922,175.394455 1653.241943,199.727310 1653.341431,224.059570 
	C1653.361206,228.874237 1653.571045,233.754395 1654.382324,238.486221 
	C1656.271729,249.506668 1661.059326,258.865082 1671.886230,263.600464 
	C1684.307983,269.033295 1697.167847,268.869385 1710.039917,265.314911 
	C1711.114502,265.018188 1712.533203,263.067200 1712.456299,261.979370 
	C1712.011108,255.691818 1711.164551,249.432663 1710.397583,242.667099 
	C1708.073608,243.014725 1706.142822,243.323242 1704.206421,243.590073 
	C1690.104248,245.533386 1680.873779,237.892975 1680.147949,223.677353 
	C1680.105347,222.845825 1680.115356,222.011169 1680.115234,221.177963 
	C1680.112183,197.178635 1680.106201,173.179321 1680.122925,149.180008 
	C1680.123779,147.899063 1680.317871,146.618271 1680.462524,144.836823 
	C1690.963257,144.836823 1701.206909,144.836823 1711.505371,144.836823 
	C1711.505371,137.601776 1711.505371,130.901855 1711.505371,123.614227 
	C1700.823608,123.614227 1690.583008,123.614227 1679.904907,123.614227 
	C1679.904907,110.598961 1679.904907,98.179367 1679.904907,85.740814 
	C1670.866333,85.740814 1662.298706,85.740814 1653.207642,85.740814 
	C1653.207642,98.529900 1653.207642,110.946274 1653.207642,123.930161 
	C1645.457031,123.930161 1638.216431,123.930161 1630.840576,123.930161 
	C1630.840576,131.249359 1630.840576,137.979660 1630.840576,144.988220 
	C1633.026489,144.988220 1634.847778,144.988220 1637.627197,144.988205 
M758.981567,162.501587 
	C758.981567,179.830566 758.879211,197.160416 759.027222,214.488129 
	C759.095398,222.466660 759.117737,230.509018 760.118713,238.400925 
	C761.531860,249.542999 766.641907,258.758636 777.424927,263.544281 
	C789.832092,269.050781 802.680847,268.835510 815.563049,265.360016 
	C816.601013,265.079987 818.067505,263.410797 817.999329,262.485657 
	C817.515137,255.921234 816.682556,249.382507 815.956482,242.794281 
	C814.480225,242.926468 813.649475,242.965195 812.829285,243.079498 
	C794.092163,245.690567 785.843567,238.573349 785.830505,219.730225 
	C785.814453,196.569351 785.825928,173.408463 785.825562,150.247574 
	C785.825562,148.634079 785.825623,147.020584 785.825623,144.872818 
	C796.581665,144.872818 806.806885,144.872818 817.047241,144.872818 
	C817.047241,137.616180 817.047241,130.908997 817.047241,123.758087 
	C806.518921,123.758087 796.420532,123.758087 785.678955,123.758087 
	C785.678955,110.776947 785.678955,98.241257 785.678955,85.754761 
	C776.448303,85.754761 767.879211,85.754761 758.794678,85.754761 
	C758.794678,98.562286 758.794678,110.979836 758.794678,123.959755 
	C751.041870,123.959755 743.804260,123.959755 736.408936,123.959755 
	C736.408936,131.250366 736.408936,137.955780 736.408936,145.138794 
	C744.035095,145.138794 751.287109,145.138794 758.981567,145.138794 
	C758.981567,150.910110 758.981567,156.206284 758.981567,162.501587 
z"/>
<path fill="#0D0F0D" opacity="1.000000" stroke="none" 
	d="
M1017.395386,250.966415 
	C1017.395264,255.259705 1017.395264,259.060028 1017.395264,263.204346 
	C1007.747375,263.204346 998.538147,263.204346 989.173218,263.204346 
	C989.173218,197.165237 989.173218,131.454208 989.173218,65.410988 
	C991.106995,65.322655 992.730286,65.184608 994.353577,65.183907 
	C1020.007507,65.172882 1045.661865,65.080589 1071.315063,65.218895 
	C1086.895264,65.302887 1101.677124,68.363457 1114.924561,77.300766 
	C1146.345215,98.498383 1143.958008,147.076370 1112.538452,166.627090 
	C1105.554932,170.972534 1097.715088,173.941742 1089.628784,177.854660 
	C1097.468994,191.586075 1105.580200,205.810120 1113.708984,220.024124 
	C1121.802002,234.175461 1129.912720,248.316742 1138.348389,263.043274 
	C1136.637085,263.277130 1135.428345,263.578888 1134.218018,263.585571 
	C1126.388794,263.628754 1118.548218,263.360565 1110.734497,263.710449 
	C1106.759521,263.888428 1104.865234,262.325439 1103.051270,259.003479 
	C1089.247314,233.723755 1075.161865,208.597443 1061.401367,183.294373 
	C1059.513428,179.822708 1057.425049,178.759140 1053.631836,178.838043 
	C1041.835571,179.083435 1030.030762,178.927902 1017.395447,178.927902 
	C1017.395447,203.013992 1017.395447,226.743729 1017.395386,250.966415 
M1051.499268,154.519012 
	C1060.491577,154.320312 1069.512817,154.501282 1078.468262,153.818420 
	C1087.816772,153.105591 1096.557983,150.175964 1102.610596,142.416534 
	C1117.961304,122.737488 1106.588135,93.797310 1081.633423,91.173553 
	C1063.816772,89.300285 1045.709839,90.178200 1027.732178,89.851517 
	C1024.447754,89.791824 1021.161316,89.842995 1017.745850,89.842995 
	C1017.745850,111.611099 1017.745850,132.834091 1017.745850,154.518845 
	C1028.905273,154.518845 1039.702393,154.518845 1051.499268,154.519012 
z"/>
<path fill="#0D0F0E" opacity="1.000000" stroke="none" 
	d="
M555.612183,238.610962 
	C535.763550,255.733734 512.549316,262.752777 487.187622,263.278687 
	C467.036194,263.696533 446.870789,263.441345 426.711548,263.468567 
	C426.067017,263.469452 425.422211,263.289917 424.393646,263.137665 
	C424.393646,197.355133 424.393646,131.668091 424.393646,65.737083 
	C425.197815,65.564209 425.975372,65.244408 426.749329,65.252876 
	C449.730469,65.504234 472.796265,64.644966 495.671204,66.347153 
	C526.444153,68.637054 552.507935,81.239914 570.402954,107.565308 
	C580.546204,122.486969 584.393127,139.500137 585.180176,157.208191 
	C586.260071,181.505447 582.695618,204.805710 567.891602,225.051865 
	C564.380249,229.854065 559.906311,233.952484 555.612183,238.610962 
M531.650330,223.208664 
	C538.774353,217.732590 544.334534,210.958252 548.188293,202.853119 
	C557.691162,182.866714 558.383118,161.954758 553.456543,140.870773 
	C548.167114,118.233757 534.127014,103.070427 511.973053,95.520248 
	C492.695740,88.950417 472.834167,91.531891 452.923401,90.973022 
	C452.923401,140.176575 452.923401,188.863098 452.923401,237.285461 
	C466.529388,237.285461 479.818115,237.768326 493.055756,237.152832 
	C506.944305,236.507095 519.790955,232.036957 531.650330,223.208664 
z"/>
<path fill="#0C0E0D" opacity="1.000000" stroke="none" 
	d="
M1341.358032,123.000092 
	C1341.358154,130.941559 1341.358154,138.383026 1341.358154,146.671967 
	C1342.557861,145.743805 1343.148682,145.490997 1343.424805,145.043808 
	C1362.692871,113.850677 1417.727173,107.237823 1444.996704,148.282608 
	C1464.263550,177.282166 1461.085938,222.695740 1438.111206,247.506088 
	C1415.123047,272.330811 1375.256470,274.538544 1351.228027,252.183167 
	C1347.890503,249.077942 1345.166748,245.313019 1341.493652,241.088440 
	C1341.493652,248.842819 1341.493652,255.749878 1341.493652,263.024689 
	C1332.398682,263.024689 1323.840210,263.024689 1314.929810,263.024689 
	C1314.929810,197.321701 1314.929810,131.601578 1314.929810,65.541107 
	C1323.567505,65.541107 1332.110474,65.541107 1341.357910,65.541107 
	C1341.357910,84.635590 1341.357910,103.567848 1341.358032,123.000092 
M1357.480103,153.944382 
	C1341.514771,167.462357 1336.998169,184.959808 1340.475098,204.826096 
	C1346.110474,237.026093 1381.397705,253.570496 1408.187988,236.473389 
	C1425.933105,225.148773 1431.730225,207.842880 1429.928833,187.690857 
	C1428.308716,169.566452 1419.411743,155.674866 1402.735718,148.155075 
	C1387.156982,141.130173 1371.893921,142.986954 1357.480103,153.944382 
z"/>
<path fill="#0D0F0E" opacity="1.000000" stroke="none" 
	d="
M1146.895020,180.995941 
	C1151.338867,142.120148 1188.375488,117.106743 1226.952148,119.823997 
	C1260.794678,122.207771 1287.899780,145.612274 1294.160400,178.147995 
	C1300.869629,213.015259 1285.287964,245.246582 1254.429199,260.333801 
	C1218.459106,277.919983 1170.901245,262.966125 1153.236206,228.266602 
	C1145.718750,213.500031 1145.080933,197.580322 1146.895020,180.995941 
M1241.443237,148.883820 
	C1221.263062,140.154755 1199.894775,144.145462 1185.904541,159.307449 
	C1175.589844,170.486145 1172.781250,183.990158 1173.763794,198.683075 
	C1175.855957,229.961517 1204.907349,250.143204 1234.862915,241.089966 
	C1253.181152,235.553787 1265.885986,219.849747 1268.009399,200.118713 
	C1270.432983,177.598816 1261.331787,159.716782 1241.443237,148.883820 
z"/>
<path fill="#0D0F0D" opacity="1.000000" stroke="none" 
	d="
M1481.725830,224.247009 
	C1473.438721,198.598190 1472.992065,173.583740 1488.686646,151.125015 
	C1505.212036,127.477310 1529.410156,118.200188 1557.809204,119.945702 
	C1590.578613,121.959824 1617.153442,144.761017 1624.079224,176.240707 
	C1636.608887,233.191528 1587.043335,280.304016 1530.617310,264.826599 
	C1508.521484,258.765808 1491.467407,246.077408 1481.725830,224.247009 
M1574.859009,150.564270 
	C1557.410400,141.508728 1540.123779,141.574753 1523.839600,152.852936 
	C1506.224243,165.053085 1501.785522,182.917587 1504.609131,203.113388 
	C1507.280151,222.216095 1521.149658,237.565567 1538.993652,241.779510 
	C1558.528076,246.392654 1578.211060,239.239761 1589.601196,223.759995 
	C1603.543457,204.811981 1603.398071,167.283539 1574.859009,150.564270 
z"/>
<path fill="#0D100E" opacity="1.000000" stroke="none" 
	d="
M690.148926,245.150696 
	C673.499756,272.553955 635.918396,272.334045 616.955872,258.947449 
	C590.658447,240.382751 595.552002,200.635681 625.564331,186.501038 
	C638.816406,180.259827 653.129639,179.083038 667.192017,176.603622 
	C675.064758,175.215530 682.969788,173.984100 690.891663,172.914719 
	C694.136475,172.476715 695.274475,171.196640 695.297058,167.804764 
	C695.413818,150.250854 687.494995,141.168076 670.008545,139.394272 
	C667.035583,139.092697 664.011536,139.073837 661.021912,139.193420 
	C642.804993,139.921906 635.517395,146.219223 632.355408,164.137650 
	C624.354553,164.137650 616.285339,164.137650 607.988037,164.137650 
	C607.157898,151.347351 612.192505,141.371170 621.550964,133.288589 
	C630.590088,125.481857 641.387817,121.721573 653.010437,120.517387 
	C667.041687,119.063660 680.976562,119.680878 694.414917,124.711754 
	C711.560486,131.130524 720.971436,143.738098 721.640991,161.729156 
	C722.452271,183.532516 721.949829,205.385147 721.994629,227.216507 
	C722.018860,239.036148 721.998901,250.855881 721.998901,263.169189 
	C713.335510,263.169189 704.972290,263.169189 696.073608,263.169189 
	C696.073608,254.708420 696.073608,246.154129 696.073608,237.599854 
	C695.698730,237.465134 695.323914,237.330414 694.949036,237.195694 
	C693.410278,239.743454 691.871521,242.291214 690.148926,245.150696 
M687.611877,225.990250 
	C693.788330,215.308289 695.862244,203.785126 695.057678,190.783768 
	C678.265747,194.027771 661.964294,197.020706 645.752563,200.439117 
	C642.457520,201.133896 639.290100,203.119934 636.427979,205.050568 
	C628.537903,210.372833 625.247742,219.356201 627.397339,228.679276 
	C629.358398,237.185043 636.330627,243.715958 645.519592,245.024231 
	C663.170593,247.537292 677.137146,241.405350 687.611877,225.990250 
z"/>
<path fill="#0D100E" opacity="1.000000" stroke="none" 
	d="
M833.610596,231.314911 
	C831.288635,211.163223 840.610352,195.161636 858.820801,186.469910 
	C872.034729,180.162994 886.372803,179.078690 900.423584,176.594299 
	C908.290344,175.203339 916.192078,173.985580 924.107605,172.906387 
	C927.327881,172.467346 928.501404,171.206802 928.522949,167.800064 
	C928.633545,150.320358 920.667969,140.816818 903.190857,139.558319 
	C896.194275,139.054474 888.869446,139.923599 882.007507,141.517380 
	C872.752380,143.666977 866.904480,149.906189 866.335876,159.821701 
	C866.103516,163.872650 864.391113,164.720490 860.739075,164.572021 
	C854.279846,164.309433 847.802246,164.498444 841.398743,164.498444 
	C839.617981,150.211349 847.607788,135.400375 862.420959,128.025696 
	C886.292969,116.141106 910.808533,116.627960 934.588501,128.133499 
	C948.820862,135.019577 954.802551,148.275955 954.997986,163.520798 
	C955.416382,196.158951 955.134583,228.806091 955.122437,261.449554 
	C955.122253,261.928467 954.901428,262.407318 954.689209,263.269470 
	C946.355225,263.269470 937.972839,263.269470 929.159973,263.269470 
	C929.159973,254.641464 929.159973,246.210693 929.159973,237.779907 
	C928.833984,237.644257 928.507935,237.508591 928.181946,237.372925 
	C927.530334,238.294312 926.736633,239.146271 926.247742,240.147125 
	C910.755615,271.864166 873.881592,272.566681 853.270264,260.919495 
	C841.980103,254.539551 835.527954,244.620728 833.610596,231.314911 
M863.629211,235.718155 
	C867.505066,241.189240 872.837769,244.229950 879.425537,245.148727 
	C910.429626,249.472855 931.345703,222.639359 927.869873,191.151184 
	C917.880066,192.901566 907.867859,194.440323 897.953918,196.461060 
	C890.006104,198.081055 881.785889,199.346497 874.380493,202.433731 
	C860.468140,208.233658 856.335938,221.603348 863.629211,235.718155 
z"/>
<path fill="#0C0D0C" opacity="1.000000" stroke="none" 
	d="
M223.389130,204.988785 
	C223.389130,196.516846 223.389130,188.044891 223.389130,178.787109 
	C158.280945,178.787109 93.606766,178.787109 28.401518,178.423553 
	C27.043623,177.369339 26.216803,176.678696 25.389982,175.988037 
	C25.331144,168.302765 25.272306,160.617508 25.683357,152.371216 
	C28.281013,151.537750 30.408615,151.028793 32.536568,151.027313 
	C94.105301,150.984695 155.674088,150.981827 217.242783,151.036301 
	C219.518600,151.038300 221.793854,151.680023 224.069366,152.023621 
	C224.069366,160.298813 224.069366,168.574005 224.069366,177.724533 
	C245.081848,177.724533 265.568359,177.724533 286.679779,178.211746 
	C287.533722,188.043274 287.762787,197.387573 287.991882,206.731888 
	C267.304932,206.783875 246.617996,206.835876 225.403717,206.560654 
	C224.380615,205.818558 223.884872,205.403671 223.389130,204.988785 
z"/>
<path fill="#0D0F0E" opacity="1.000000" stroke="none" 
	d="
M1637.148193,144.988220 
	C1634.847778,144.988220 1633.026489,144.988220 1630.840576,144.988220 
	C1630.840576,137.979660 1630.840576,131.249359 1630.840576,123.930161 
	C1638.216431,123.930161 1645.457031,123.930161 1653.207642,123.930161 
	C1653.207642,110.946274 1653.207642,98.529900 1653.207642,85.740814 
	C1662.298706,85.740814 1670.866333,85.740814 1679.904907,85.740814 
	C1679.904907,98.179367 1679.904907,110.598961 1679.904907,123.614227 
	C1690.583008,123.614227 1700.823608,123.614227 1711.505371,123.614227 
	C1711.505371,130.901855 1711.505371,137.601776 1711.505371,144.836823 
	C1701.206909,144.836823 1690.963257,144.836823 1680.462524,144.836823 
	C1680.317871,146.618271 1680.123779,147.899063 1680.122925,149.180008 
	C1680.106201,173.179321 1680.112183,197.178635 1680.115234,221.177963 
	C1680.115356,222.011169 1680.105347,222.845825 1680.147949,223.677353 
	C1680.873779,237.892975 1690.104248,245.533386 1704.206421,243.590073 
	C1706.142822,243.323242 1708.073608,243.014725 1710.397583,242.667099 
	C1711.164551,249.432663 1712.011108,255.691818 1712.456299,261.979370 
	C1712.533203,263.067200 1711.114502,265.018188 1710.039917,265.314911 
	C1697.167847,268.869385 1684.307983,269.033295 1671.886230,263.600464 
	C1661.059326,258.865082 1656.271729,249.506668 1654.382324,238.486221 
	C1653.571045,233.754395 1653.361206,228.874237 1653.341431,224.059570 
	C1653.241943,199.727310 1653.294922,175.394455 1653.294434,151.061798 
	C1653.294434,149.251602 1653.294434,147.441406 1653.294434,144.988205 
	C1647.848145,144.988205 1642.737671,144.988205 1637.148193,144.988220 
z"/>
<path fill="#0D0F0E" opacity="1.000000" stroke="none" 
	d="
M758.981567,162.002014 
	C758.981567,156.206284 758.981567,150.910110 758.981567,145.138794 
	C751.287109,145.138794 744.035095,145.138794 736.408936,145.138794 
	C736.408936,137.955780 736.408936,131.250366 736.408936,123.959755 
	C743.804260,123.959755 751.041870,123.959755 758.794678,123.959755 
	C758.794678,110.979836 758.794678,98.562286 758.794678,85.754761 
	C767.879211,85.754761 776.448303,85.754761 785.678955,85.754761 
	C785.678955,98.241257 785.678955,110.776947 785.678955,123.758087 
	C796.420532,123.758087 806.518921,123.758087 817.047241,123.758087 
	C817.047241,130.908997 817.047241,137.616180 817.047241,144.872818 
	C806.806885,144.872818 796.581665,144.872818 785.825623,144.872818 
	C785.825623,147.020584 785.825562,148.634079 785.825562,150.247574 
	C785.825928,173.408463 785.814453,196.569351 785.830505,219.730225 
	C785.843567,238.573349 794.092163,245.690567 812.829285,243.079498 
	C813.649475,242.965195 814.480225,242.926468 815.956482,242.794281 
	C816.682556,249.382507 817.515137,255.921234 817.999329,262.485657 
	C818.067505,263.410797 816.601013,265.079987 815.563049,265.360016 
	C802.680847,268.835510 789.832092,269.050781 777.424927,263.544281 
	C766.641907,258.758636 761.531860,249.542999 760.118713,238.400925 
	C759.117737,230.509018 759.095398,222.466660 759.027222,214.488129 
	C758.879211,197.160416 758.981567,179.830566 758.981567,162.002014 
z"/>
<path fill="#0C0C0C" opacity="1.000000" stroke="none" 
	d="
M156.950333,92.881783 
	C156.950333,84.234589 156.950333,75.587395 156.950333,66.425461 
	C113.070198,66.425461 69.511940,66.425461 25.569149,66.425461 
	C25.569149,56.533455 25.569149,47.146309 25.569149,37.376701 
	C69.389801,37.376701 113.278549,37.376701 157.704041,37.376701 
	C157.704041,46.204231 157.704041,55.267426 157.704041,64.839355 
	C179.615677,64.839355 201.001617,64.839355 222.784134,64.839355 
	C222.784134,74.729973 222.784134,84.120415 222.784134,94.296501 
	C201.731567,94.296501 180.501236,94.296501 158.560974,94.053101 
	C157.550812,93.500397 157.250580,93.191086 156.950333,92.881783 
z"/>
<path fill="#0B0C0C" opacity="1.000000" stroke="none" 
	d="
M156.936081,262.846710 
	C156.936081,254.192368 156.936081,245.538025 156.936081,236.365906 
	C113.104752,236.365906 69.535759,236.365906 25.576080,236.365906 
	C25.576080,226.468536 25.576080,217.077194 25.576080,207.296722 
	C69.385757,207.296722 113.288666,207.296722 157.723709,207.296722 
	C157.723709,216.127533 157.723709,225.194260 157.723709,234.764465 
	C179.643799,234.764465 201.042206,234.764465 222.810181,234.764465 
	C222.810181,244.659409 222.810181,254.056870 222.810181,264.186432 
	C201.683258,264.186432 180.431549,264.186432 158.475586,263.976074 
	C157.492935,263.459381 157.214508,263.153046 156.936081,262.846710 
z"/>
<path fill="#0C0D0D" opacity="1.000000" stroke="none" 
	d="
M156.494171,92.982491 
	C157.250580,93.191086 157.550812,93.500397 158.120712,93.989708 
	C158.390366,103.441292 158.390366,112.712868 158.390366,122.244621 
	C113.688797,122.244621 69.805504,122.244621 25.550110,122.244621 
	C25.550110,112.745956 25.550110,103.365082 25.550110,93.083199 
	C68.985809,93.083199 112.511902,93.083199 156.494171,92.982491 
z"/>
<path fill="#0C0D0C" opacity="1.000000" stroke="none" 
	d="
M156.477890,262.929932 
	C157.214508,263.153046 157.492935,263.459381 158.025314,263.945862 
	C158.279266,273.260315 158.279266,282.394592 158.279266,291.920715 
	C113.722084,291.920715 69.719826,291.920715 25.459249,291.920715 
	C25.459249,282.387329 25.459249,272.991791 25.459249,263.013184 
	C69.163712,263.013184 112.591705,263.013184 156.477890,262.929932 
z"/>
<path fill="#0F1210" opacity="1.000000" stroke="none" 
	d="
M224.320084,151.667603 
	C221.793854,151.680023 219.518600,151.038300 217.242783,151.036301 
	C155.674088,150.981827 94.105301,150.984695 32.536568,151.027313 
	C30.408615,151.028793 28.281013,151.537750 25.772373,151.911087 
	C25.874128,151.180603 26.209255,149.810257 26.869942,149.629440 
	C28.267454,149.246948 29.834990,149.471680 31.332788,149.471619 
	C92.929764,149.469315 154.526733,149.469696 216.123703,149.469757 
	C218.262527,149.469757 220.401352,149.469757 223.080612,149.469757 
	C223.080612,140.054382 223.080612,130.986115 223.080612,121.608353 
	C245.360031,121.608353 267.100189,121.608353 289.277588,121.608353 
	C289.277588,131.061493 289.277588,140.578033 289.277588,150.712769 
	C287.421356,150.712769 285.645782,150.712769 283.870239,150.712769 
	C265.890594,150.712677 247.910889,150.695755 229.931335,150.738632 
	C228.144058,150.742905 226.357620,151.111877 224.320084,151.667603 
z"/>
<path fill="#0F1210" opacity="1.000000" stroke="none" 
	d="
M288.389954,206.740356 
	C287.762787,197.387573 287.533722,188.043274 287.137512,178.310913 
	C287.873016,178.291077 289.568329,178.672241 289.562561,179.025650 
	C289.411835,188.268448 289.084808,197.508392 288.389954,206.740356 
z"/>
<path fill="#0F1210" opacity="1.000000" stroke="none" 
	d="
M25.296824,176.336426 
	C26.216803,176.678696 27.043623,177.369339 27.941301,178.335022 
	C27.075994,177.968292 26.139830,177.326538 25.296824,176.336426 
z"/>
<path fill="#0F1210" opacity="1.000000" stroke="none" 
	d="
M223.313293,205.295197 
	C223.884872,205.403671 224.380615,205.818558 224.941788,206.479828 
	C224.417297,206.351334 223.827393,205.976486 223.313293,205.295197 
z"/>
<path fill="#FFFFFF" opacity="1.000000" stroke="none" 
	d="
M1050.999390,154.518921 
	C1039.702393,154.518845 1028.905273,154.518845 1017.745850,154.518845 
	C1017.745850,132.834091 1017.745850,111.611099 1017.745850,89.842995 
	C1021.161316,89.842995 1024.447754,89.791824 1027.732178,89.851517 
	C1045.709839,90.178200 1063.816772,89.300285 1081.633423,91.173553 
	C1106.588135,93.797310 1117.961304,122.737488 1102.610596,142.416534 
	C1096.557983,150.175964 1087.816772,153.105591 1078.468262,153.818420 
	C1069.512817,154.501282 1060.491577,154.320312 1050.999390,154.518921 
z"/>
<path fill="#FFFFFF" opacity="1.000000" stroke="none" 
	d="
M531.372070,223.433716 
	C519.790955,232.036957 506.944305,236.507095 493.055756,237.152832 
	C479.818115,237.768326 466.529388,237.285461 452.923401,237.285461 
	C452.923401,188.863098 452.923401,140.176575 452.923401,90.973022 
	C472.834167,91.531891 492.695740,88.950417 511.973053,95.520248 
	C534.127014,103.070427 548.167114,118.233757 553.456543,140.870773 
	C558.383118,161.954758 557.691162,182.866714 548.188293,202.853119 
	C544.334534,210.958252 538.774353,217.732590 531.372070,223.433716 
z"/>
<path fill="#FFFFFF" opacity="1.000000" stroke="none" 
	d="
M1357.756836,153.717499 
	C1371.893921,142.986954 1387.156982,141.130173 1402.735718,148.155075 
	C1419.411743,155.674866 1428.308716,169.566452 1429.928833,187.690857 
	C1431.730225,207.842880 1425.933105,225.148773 1408.187988,236.473389 
	C1381.397705,253.570496 1346.110474,237.026093 1340.475098,204.826096 
	C1336.998169,184.959808 1341.514771,167.462357 1357.756836,153.717499 
z"/>
<path fill="#FFFFFF" opacity="1.000000" stroke="none" 
	d="
M1241.776001,149.056610 
	C1261.331787,159.716782 1270.432983,177.598816 1268.009399,200.118713 
	C1265.885986,219.849747 1253.181152,235.553787 1234.862915,241.089966 
	C1204.907349,250.143204 1175.855957,229.961517 1173.763794,198.683075 
	C1172.781250,183.990158 1175.589844,170.486145 1185.904541,159.307449 
	C1199.894775,144.145462 1221.263062,140.154755 1241.776001,149.056610 
z"/>
<path fill="#FFFFFF" opacity="1.000000" stroke="none" 
	d="
M1575.182495,150.737030 
	C1603.398071,167.283539 1603.543457,204.811981 1589.601196,223.759995 
	C1578.211060,239.239761 1558.528076,246.392654 1538.993652,241.779510 
	C1521.149658,237.565567 1507.280151,222.216095 1504.609131,203.113388 
	C1501.785522,182.917587 1506.224243,165.053085 1523.839600,152.852936 
	C1540.123779,141.574753 1557.410400,141.508728 1575.182495,150.737030 
z"/>
<path fill="#FFFFFF" opacity="1.000000" stroke="none" 
	d="
M687.405518,226.293732 
	C677.137146,241.405350 663.170593,247.537292 645.519592,245.024231 
	C636.330627,243.715958 629.358398,237.185043 627.397339,228.679276 
	C625.247742,219.356201 628.537903,210.372833 636.427979,205.050568 
	C639.290100,203.119934 642.457520,201.133896 645.752563,200.439117 
	C661.964294,197.020706 678.265747,194.027771 695.057678,190.783768 
	C695.862244,203.785126 693.788330,215.308289 687.405518,226.293732 
z"/>
<path fill="#FFFFFF" opacity="1.000000" stroke="none" 
	d="
M863.418579,235.412079 
	C856.335938,221.603348 860.468140,208.233658 874.380493,202.433731 
	C881.785889,199.346497 890.006104,198.081055 897.953918,196.461060 
	C907.867859,194.440323 917.880066,192.901566 927.869873,191.151184 
	C931.345703,222.639359 910.429626,249.472855 879.425537,245.148727 
	C872.837769,244.229950 867.505066,241.189240 863.418579,235.412079 
z"/>
</svg>