<?xml version="1.0" encoding="UTF-8"?>
<svg id="Layer_1" data-name="Layer 1" xmlns="http://www.w3.org/2000/svg" version="1.1" viewBox="0 0 900 136">
  <defs>
    <style>
      .cls-1 {
        fill: #0b0b0b;
        stroke-width: 0px;
      }
    </style>
  </defs>
  <path class="cls-1" d="M283.4,107.1c10.2-9.1,15.4-22.3,15.4-39.1s-5-29.7-15.4-39c-10.3-9.2-23.9-13.9-40.4-13.9h-30.3v105.7h30.3c16.9,0,30.1-4.5,40.4-13.7h0ZM227.8,28.8h15.4c25.4,0,40,14.3,40,39.2s-14.3,39-39.3,39.2h0s-16.1,0-16.1,0V28.8Z"/>
  <path class="cls-1" d="M412.4,123c4,0,7.5-.5,10.6-1.6l-1.2-11.9c-1.8.5-3.5.7-5.1.7-7.4,0-11.1-4-11.1-11.8v-40.9h17v-11.2h-17v-20.5h-14.3v20.5h-12.3v11.2h12.3v43.7c0,14.7,6.9,21.8,21.1,21.8h0Z"/>
  <path class="cls-1" d="M551.5,76.1l24.8,44.8h17.6l-26.5-46.3.8-.2c15.6-4.1,24.9-15.1,24.9-29.7s-3.1-15.8-9.5-21.4c-6.5-5.5-15-8.2-26-8.2h-43.6v105.8h15.2v-45.2h22.2l.2.4h0ZM529.1,28.1h27.3c14.3,0,21.5,5.8,21.5,17.3s-7.2,17.2-21.5,17.2h-27.3V28.1Z"/>
  <path class="cls-1" d="M665.9,55.1c-7.6-7.3-17.9-11.4-28.2-11-10.7,0-20.2,3.6-28,10.6-8,7.1-11.9,16.5-11.9,28.9s3.5,20.9,10.8,27.9h0s1.1,1,1.1,1c7.9,7,17.3,10.6,28,10.6,10.4.3,20.7-3.7,28.3-11,5.3-5.1,11.6-14.2,11.6-28.4s-6.3-23.3-11.6-28.4h0ZM655.6,102.6c-4.9,4.9-11,7.4-18.1,7.4s-13-2.5-17.9-7.4c-4.8-4.8-7.2-11.2-7.2-19s2.4-14.2,7.2-19c4.9-4.9,11-7.4,17.9-7.4s13.2,2.5,18.1,7.4c4.9,4.9,7.4,11.3,7.4,19s-2.5,14.1-7.4,19Z"/>
  <path class="cls-1" d="M728.3,123c10.1,0,18.7-3.6,25.4-10.8,6.8-7.4,10.2-17,10.2-28.6s-3.4-21.3-10.1-28.5c-6.6-7.4-14.7-10.9-24.7-10.9s-20.5,5-25.9,13.3l-1.2,1.9V15.1h-14.3v105.7h14.3v-12.8l1.2,2c5.1,8,14.7,13,25.1,13h0ZM700.9,83.6c0-7.6,2.4-14,7.1-18.8,4.7-5.1,10.3-7.6,17.1-7.6s12.7,2.6,17.2,7.6c4.7,4.8,7,11.1,7,18.8s-2.3,13.9-7,19c-4.5,4.8-10.5,7.4-17.2,7.4s-12.4-2.5-17.1-7.4c-4.7-5-7.1-11.4-7.1-19h0Z"/>
  <path class="cls-1" d="M842.1,55.1c-7.6-7.3-17.9-11.4-28.2-11-10.7,0-20.2,3.6-28,10.6-8,7.1-11.9,16.5-11.9,28.9s3.5,20.9,10.8,27.9h0s1.1,1,1.1,1c7.9,7,17.3,10.6,28,10.6,10.4.3,20.7-3.7,28.3-11,5.3-5.1,11.6-14.2,11.6-28.4s-6.3-23.3-11.6-28.4h0ZM831.8,102.6c-4.9,4.9-11,7.4-18.1,7.4s-13-2.5-17.9-7.4c-4.8-4.8-7.2-11.2-7.2-19s2.4-14.2,7.2-19c4.9-4.9,11-7.4,17.9-7.4s13.2,2.5,18.1,7.4c4.9,4.9,7.4,11.3,7.4,19s-2.5,14.1-7.4,19Z"/>
  <path class="cls-1" d="M889.4,123c4,0,7.5-.5,10.6-1.6l-1.2-11.9c-1.9.5-3.5.7-5.1.7-7.4,0-11.1-4-11.1-11.8v-40.9h17v-11.2h-17v-20.5h-14.3v20.5h-12.3v11.2h12.3v43.7c0,14.7,6.9,21.8,21.1,21.8h0Z"/>
  <path class="cls-1" d="M105.7,15.1h-35.2v15.1h35.2v-15.1Z"/>
  <path class="cls-1" d="M70.5,0H0v15.1h70.5V0Z"/>
  <path class="cls-1" d="M70.5,30.2H0v15.1h70.5v-15.1Z"/>
  <path class="cls-1" d="M140.9,45.3h-35.2v15.1h35.2v-15.1Z"/>
  <path class="cls-1" d="M105.7,60.4H0v15.1h105.7v-15.1Z"/>
  <path class="cls-1" d="M140.9,75.5h-35.2v15.1h35.2v-15.1Z"/>
  <path class="cls-1" d="M70.5,90.6H0v15.1h70.5v-15.1Z"/>
  <path class="cls-1" d="M70.5,120.8H0v15.1h70.5v-15.1Z"/>
  <path class="cls-1" d="M105.7,105.7h-35.2v15.1h35.2v-15.1Z"/>
  <path class="cls-1" d="M340.7,44.2h-1.6c-8.4.2-15,2.3-20.2,6.4-4.7,3.7-7.3,7.9-8,12.9,0,0-.4,3-.4,4.6h13.4c0-1.7.6-4.5.6-4.5,1-5.6,7.2-9,16.2-9s16.6,4.8,16.6,13.8v3.8l-24.6,3.9c-16.6,2.6-26.2,11.4-26.2,24.3s10.1,22.7,25.2,22.7,19.7-5.1,24.6-15.1l1.3-2.6v15.5h14c0,0,0-51.6,0-51.6,0-16.4-10.7-25-30.9-25h0ZM357.3,85.4c-.1,15.3-9.6,25.9-23.2,25.9s-13.4-4.8-13.4-12,5.1-11.8,15.3-13.5l21.3-3.7v3.2Z"/>
  <path class="cls-1" d="M465.1,44.2h-1.6c-8.4.2-15,2.3-20.2,6.4-4.7,3.7-7.3,7.9-8,12.9,0,0-.4,3-.4,4.6h13.4c0-1.7.6-4.5.6-4.5,1-5.6,7.2-9,16.2-9s16.6,4.8,16.6,13.8v3.8l-24.6,3.9c-16.6,2.6-26.2,11.4-26.2,24.3s10.1,22.7,25.2,22.7,19.7-5.1,24.6-15.1l1.3-2.6v15.5h14c0,0,0-51.6,0-51.6,0-16.4-10.7-25-30.9-25h0ZM481.7,85.4c-.1,15.3-9.6,25.9-23.2,25.9s-13.4-4.8-13.4-12,5.1-11.8,15.3-13.5l21.3-3.7v3.2Z"/>
</svg>